<?xml version="1.0" encoding="utf-8"?>
<!-- Generator: Adobe Illustrator 23.0.1, SVG Export Plug-In . SVG Version: 6.00 Build 0)  -->
<svg version="1.1" id="Layer_2" xmlns="http://www.w3.org/2000/svg" xmlns:xlink="http://www.w3.org/1999/xlink" x="0px" y="0px"
	 viewBox="0 0 361 368.1" style="enable-background:new 0 0 361 368.1;" xml:space="preserve">
<style type="text/css">
	.st0{fill:#CA2127;}
</style>
<path class="st0" d="M42,295.1H24l-24,71h18l4-14h22l4,14h18L42,295.1z M40,338.1H26l7-27L40,338.1z"/>
<polygon class="st0" points="87,295.1 104,295.1 104,352.1 133,352.1 133,366.1 87,366.1 "/>
<polygon class="st0" points="157,295.1 174,295.1 174,352.1 203,352.1 203,366.1 157,366.1 "/>
<polygon class="st0" points="297,295.1 317,295.1 329,321.1 341,295.1 361,295.1 338,338.1 338,366.1 320,366.1 320,338.1 "/>
<path class="st0" d="M253,294.1c-20.4,0-38,16.6-38,37c0,20.4,17.6,37,38,37s38-16.6,38-37C291,310.7,273.4,294.1,253,294.1z
	 M253,352.1c-10.8,0-20-9.4-20-21c0-11.6,9.2-21,20-21s20,9.4,20,21C273,342.7,263.8,352.1,253,352.1z"/>
<path class="st0" d="M184.8,125.5c-23.8,41.3-47.1,81.7-70.9,122.9c-7.3-12.4-14.2-23.9-20.7-35.6c-0.7-1.3,0.4-4,1.3-5.7
	c19-33.1,38.1-66.1,57.1-99.1c3.3-5.8,6.7-11.5,9.9-17.3c0.7-1.2,1-3.3,0.4-4.4c-6.6-11.9-13.5-23.6-20.7-36c-1.4,2.3-2.4,4-3.4,5.6
	c-29,50.2-58,100.3-86.8,150.6c-2.1,3.7-4.4,4.9-8.6,4.8H5.3l3-5.5C47.1,138.7,85.9,71.5,124.6,4.3c1.8-3.2,3.7-4.3,7.4-4.3l18.5,0
	c3.5,0,5.6,0.9,7.4,4.1c38.9,67.5,77.9,134.9,117,202.3c2,3.5,2.1,6,0,9.4c-5.5,8.9-10.6,18.1-15.8,27.2c-0.8,1.4-1.7,2.7-3.2,5.2
	C232,207.1,208.7,166.8,184.8,125.5z"/>
<path class="st0" d="M358,210.1h-35.6c-5.8,0.2-8.7-1.7-11.6-6.7c-38-65.9-76.2-131.7-114.4-197.5c-1-1.7-1.9-3.4-3.2-5.8
	c14.3,0,27.7-0.1,41.2,0.2c1.4,0,3.1,2.2,4,3.7c21.3,36.5,42.5,73.1,63.7,109.7c17.5,30.2,35.1,60.5,52.6,90.7L358,210.1z"/>
</svg>
