<?xml version="1.0" encoding="utf-8"?>
<!-- Generator: Adobe Illustrator 23.0.1, SVG Export Plug-In . SVG Version: 6.00 Build 0)  -->
<svg version="1.1" id="Layer_1" xmlns="http://www.w3.org/2000/svg" xmlns:xlink="http://www.w3.org/1999/xlink" x="0px" y="0px"
	 viewBox="0 0 48 48" style="enable-background:new 0 0 48 48;" xml:space="preserve">
<style type="text/css">
	.st0{fill:none;stroke:#CA2127;stroke-width:2;stroke-linecap:round;stroke-linejoin:round;stroke-miterlimit:10;}
</style>
<path class="st0" d="M35,20.3V7c0-1.1-0.9-2-2-2H8C6.9,5,6,5.9,6,7v34c0,1.1,0.9,2,2,2h25c1.1,0,2-0.9,2-2V28.7"/>
<path class="st0" d="M27.7,36l-4.9,0.7l0.7-4.9l16.3-16.3c0.8-0.8,2-0.8,2.8,0l1.4,1.4c0.8,0.8,0.8,2,0,2.8L27.7,36z"/>
<line class="st0" x1="37.6" y1="17.7" x2="41.8" y2="21.9"/>
<path class="st0" d="M28.1,35.6c-0.5-0.9-1.1-1.7-1.8-2.4c-0.7-0.7-1.5-1.3-2.4-1.8"/>
<line class="st0" x1="29" y1="11" x2="12" y2="11"/>
<line class="st0" x1="25" y1="15" x2="12" y2="15"/>
<line class="st0" x1="27" y1="19" x2="12" y2="19"/>
<line class="st0" x1="18" y1="23" x2="12" y2="23"/>
</svg>
