<?xml version="1.0" encoding="utf-8"?>
<!-- Generator: Adobe Illustrator 23.0.1, SVG Export Plug-In . SVG Version: 6.00 Build 0)  -->
<svg version="1.1" id="Layer_1" xmlns="http://www.w3.org/2000/svg" xmlns:xlink="http://www.w3.org/1999/xlink" x="0px" y="0px"
	 viewBox="0 0 48 48" style="enable-background:new 0 0 48 48;" xml:space="preserve">
<style type="text/css">
	.st0{fill:none;stroke:#CA2127;stroke-width:2;stroke-linecap:round;stroke-linejoin:round;stroke-miterlimit:10;}
</style>
<path class="st0" d="M42,30h-5v6l-6-6H16c-1.1,0-2-0.9-2-2V9c0-1.1,0.9-2,2-2h26c1.1,0,2,0.9,2,2v19C44,29.1,43.1,30,42,30z"/>
<path class="st0" d="M28,30v3c0,1.1-0.9,2-2,2H16l-6,6v-6H6c-1.1,0-2-0.9-2-2V20c0-1.1,0.9-2,2-2h8"/>
<circle class="st0" cx="29" cy="19" r="0.5"/>
<circle class="st0" cx="22" cy="19" r="0.5"/>
<circle class="st0" cx="36" cy="19" r="0.5"/>
</svg>
