<?xml version="1.0" encoding="utf-8"?>
<!-- Generator: Adobe Illustrator 23.0.1, SVG Export Plug-In . SVG Version: 6.00 Build 0)  -->
<svg version="1.1" id="Layer_1" xmlns="http://www.w3.org/2000/svg" xmlns:xlink="http://www.w3.org/1999/xlink" x="0px" y="0px"
	 viewBox="0 0 48 48" style="enable-background:new 0 0 48 48;" xml:space="preserve">
<style type="text/css">
	.st0{fill:none;stroke:#CA2127;stroke-width:2;stroke-miterlimit:10;}
</style>
<path class="st0" d="M24,42.3c-1.9,0-3.5-1.6-3.5-3.5s1.6-3.5,3.5-3.5s3.5,1.6,3.5,3.5S25.9,42.3,24,42.3z"/>
<path class="st0" d="M24,5.7c-6.1,0-11,4.9-11,11c0,1.7,1.3,3,3,3s3-1.3,3-3c0-2.8,2.2-5,5-5s5,2.2,5,5c0,3.1-2.1,4.7-3.4,5.2
	C21,23.6,21,27.4,21,29.6l0,0c0,1.7,1.3,3,3,3s3-1.3,3-3l0,0c0-0.6,0-1.6,0.1-1.8c0,0,0.1-0.1,0.6-0.3c3.6-1.3,7.3-5.2,7.3-10.8
	C35,10.8,30.1,5.7,24,5.7z"/>
</svg>
