<?xml version="1.0" encoding="utf-8"?>
<!-- Generator: Adobe Illustrator 23.0.1, SVG Export Plug-In . SVG Version: 6.00 Build 0)  -->
<svg version="1.1" id="Layer_1" xmlns="http://www.w3.org/2000/svg" xmlns:xlink="http://www.w3.org/1999/xlink" x="0px" y="0px"
	 viewBox="0 0 48 48" style="enable-background:new 0 0 48 48;" xml:space="preserve">
<style type="text/css">
	.st0{fill:none;stroke:#CA2127;stroke-width:2;stroke-linecap:round;stroke-linejoin:round;stroke-miterlimit:10;}
</style>
<path class="st0" d="M19.2,6c-2,0-3.6,1.6-3.6,3.6c0,2,1.6,3.6,3.6,3.6l0,0h3.6V9.6C22.8,7.6,21.2,6,19.2,6 M19.2,15.6H9.6
	c-2,0-3.6,1.6-3.6,3.6s1.6,3.6,3.6,3.6h9.6c2,0,3.6-1.6,3.6-3.6C22.8,17.2,21.2,15.6,19.2,15.6"/>
<path class="st0" d="M41.9,19.2c0-2-1.6-3.6-3.6-3.6s-3.6,1.6-3.6,3.6v3.6h3.6C40.3,22.8,41.9,21.2,41.9,19.2 M32.3,19.2V9.6
	c0-2-1.6-3.6-3.6-3.6s-3.6,1.6-3.6,3.6v9.6c0,2,1.6,3.6,3.6,3.6C30.7,22.8,32.3,21.2,32.3,19.2"/>
<path class="st0" d="M28.8,42c2,0,3.6-1.6,3.6-3.6s-1.6-3.6-3.6-3.6h-3.6v3.6C25.2,40.4,26.8,42,28.8,42 M28.8,32.4h9.6
	c2,0,3.6-1.6,3.6-3.6s-1.6-3.6-3.6-3.6h-9.6c-2,0-3.6,1.6-3.6,3.6C25.2,30.8,26.8,32.4,28.8,32.4L28.8,32.4"/>
<path class="st0" d="M6,28.8c0,2,1.6,3.6,3.6,3.6l0,0c2,0,3.6-1.6,3.6-3.6v-3.6H9.6C7.6,25.2,6,26.8,6,28.8 M15.6,28.8v9.6
	c0,2,1.6,3.6,3.6,3.6s3.6-1.6,3.6-3.6v-9.6c0-2-1.6-3.6-3.6-3.6l0,0C17.2,25.2,15.6,26.8,15.6,28.8"/>
</svg>
