<?xml version="1.0" encoding="utf-8"?>
<!-- Generator: Adobe Illustrator 23.0.1, SVG Export Plug-In . SVG Version: 6.00 Build 0)  -->
<svg version="1.1" id="Layer_1" xmlns="http://www.w3.org/2000/svg" xmlns:xlink="http://www.w3.org/1999/xlink" x="0px" y="0px"
	 viewBox="0 0 48 48" style="enable-background:new 0 0 48 48;" xml:space="preserve">
<style type="text/css">
	.st0{fill:none;stroke:#CA2127;stroke-width:2;stroke-linecap:round;stroke-miterlimit:10;}
	.st1{fill:none;stroke:#CA2127;stroke-width:2;stroke-linecap:round;stroke-linejoin:round;stroke-miterlimit:10;}
</style>
<path class="st0" d="M13,43c-2.2,0-4-1.8-4-4V5c0-2.2,1.8-4,4-4h24c1.1,0,2,0.9,2,2v38c0,1.1-0.9,2-2,2h-8"/>
<path class="st0" d="M39,33c0,1.1-0.9,2-2,2H13c-2.2,0-4,1.8-4,4"/>
<polyline class="st1" points="25,35 25,47 21,43 17,47 17,35 "/>
<polyline class="st1" points="23,16 24,16 24,26 "/>
<circle class="st1" cx="23.5" cy="10.5" r="0.5"/>
<line class="st1" x1="22" y1="26" x2="26" y2="26"/>
</svg>
