<svg id="Layer_1" xmlns="http://www.w3.org/2000/svg" viewBox="0 0 81 27.8"><style>.st0{fill:#fff}.st1{fill:#d9272d}</style><g id="Page-1"><g id="Home" transform="translate(-380 -13)"><g id="Nav"><g id="Axway-Logo" transform="translate(380 13)"><path id="Fill-1" class="st0" d="M3 18.2l2.4-.4c.6-.1.7-.4.7-.7 0-.7-.5-1.3-1.7-1.3s-1.8.7-1.9 1.6l-2.4-.5c.2-1.6 1.6-3.3 4.3-3.3 3.1 0 4.3 1.8 4.3 3.8v4.9c0 .5.1 1.2.1 1.6H6.4c-.1-.3-.1-.8-.1-1.2-.5.8-1.5 1.5-2.9 1.5-2.1 0-3.4-1.4-3.4-3 0-1.8 1.3-2.8 3-3m3.2 1.7v-.4l-2.2.3c-.7.1-1.2.5-1.2 1.3 0 .6.4 1.2 1.3 1.2 1-.1 2.1-.7 2.1-2.4"/><path id="Fill-3" class="st0" d="M12.7 18.9l-3.5-5h3.2c.3.5 1.6 2.4 2 3l2-3h3l-3.5 4.9 3.6 5.1h-3.1l-2.1-3.1c-.4.5-1.7 2.5-2 3.1h-3l3.4-5z"/><path id="Fill-5" class="st0" d="M28.6 13.9l2.2 6.4 1.8-6.4h2.7l-3.1 10h-2.7l-2.3-6.8-2.3 6.8h-2.7l-3.2-10h2.8l1.9 6.4 2.1-6.4z"/><path id="Fill-7" class="st0" d="M38 18.2l2.4-.4c.6-.1.7-.4.7-.7 0-.7-.5-1.3-1.7-1.3s-1.8.7-1.9 1.6l-2.4-.5c.2-1.6 1.6-3.3 4.3-3.3 3.1 0 4.3 1.8 4.3 3.8v4.9c0 .5.1 1.2.1 1.6h-2.5c-.1-.3-.1-.8-.1-1.2-.5.8-1.5 1.5-2.9 1.5-2.1 0-3.4-1.4-3.4-3 .1-1.8 1.4-2.8 3.1-3m3.2 1.7v-.4l-2.2.3c-.7.1-1.2.5-1.2 1.3 0 .6.4 1.2 1.3 1.2 1-.1 2.1-.7 2.1-2.4"/><path id="Fill-9" class="st0" d="M45.5 27.8l2.3-5.2-4.2-8.7h3l2.7 5.9 2.4-5.9h2.9l-6.3 13.9z"/><g id="Group-13" transform="translate(56.41 .062)"><path id="Fill-11" class="st1" d="M24.6 10.2V6.8l-5.1-2.5v5.1L0 .1v3.4l22.3 10.6v-5z"/></g><path id="Fill-14" class="st1" d="M61.4 12.7v3.4l3.6 1.7-5.8 6.1H63l6.8-7.2z"/><path id="Fill-16" class="st1" d="M78.7 15.9L59.1 6.5v3.4l15.6 7.5z"/></g></g></g></g></svg>