<?xml version="1.0" encoding="utf-8"?>
<!-- Generator: Adobe Illustrator 23.0.1, SVG Export Plug-In . SVG Version: 6.00 Build 0)  -->
<svg version="1.1" id="Layer_1" xmlns="http://www.w3.org/2000/svg" xmlns:xlink="http://www.w3.org/1999/xlink" x="0px" y="0px"
	 viewBox="0 0 2511.7 789.9" style="enable-background:new 0 0 2511.7 789.9;" xml:space="preserve">
<style type="text/css">
	.st0{fill:#34495E;}
	.st1{fill:#590C0C;}
	.st2{fill:#CA2127;}
</style>
<g>
	<g>
		<path class="st0" d="M1253.5,206.4h-77.2v208.7h-56.6V206.4h-77.2v-47.9h210.9L1253.5,206.4L1253.5,206.4z"/>
		<path class="st0" d="M1330.3,201.8h-51.2v-43.3h51.2V201.8z M1330.3,415.2h-51.2v-186h51.2V415.2z"/>
		<path class="st0" d="M1473,263.8h-37.9v87.6c0,18,0.4,26.3,22.4,26.3c5.4,0,9.4,0,15.5-0.7v38.9c-14.1,1.1-19.5,1.4-31,1.4
			c-44,0-57.7-11.5-57.7-57v-96.6h-31v-34.6h31v-56.2h50.8v56.2h37.9L1473,263.8L1473,263.8z"/>
		<path class="st0" d="M1618.7,415.2c-2.5-6.8-2.9-9.7-3.6-18c-15.9,15.9-37.9,23.4-60.2,23.4c-41.1,0-66.3-21.3-66.3-56.2
			c0-48.7,44.3-54.4,81.1-59.1c33.2-4.3,45.4-7.2,45.4-22.4c0-16.9-10.8-24.9-33.5-24.9c-23.4,0-33.2,7.2-36.8,28.5h-47.9
			c2.9-41.5,32.4-62.7,86.2-62.7c37.5,0,81.1,8.7,81.1,60.6v80.4c0,16.9-0.4,34.6,6.5,50.5L1618.7,415.2L1618.7,415.2z
			 M1578.7,334.4c-17.7,2.9-37.5,5-37.5,27.8c0,15.5,10.5,24.9,28.1,24.9c26.7,0,45.4-14.8,45.4-41.5v-20.9
			C1602.8,331.5,1591.6,332.3,1578.7,334.4z"/>
		<path class="st0" d="M1827.8,415.2V306.7c0-23.1-4.3-40.4-31.7-40.4c-30.6,0-40.4,22-40.4,49v99.9h-50.8v-186h48.7v26
			c14.8-19.8,35.3-31,61.6-31c39.3,0,64.5,23.4,64.5,66.7v124.4h-51.9V415.2z"/>
		<path class="st0" d="M1970.9,201.8h-51.2v-43.3h51.2V201.8z M1970.9,415.2h-51.2v-186h51.2V415.2z"/>
		<path class="st0" d="M2185.8,415.2h-48.7v-26.3c-14.1,20.5-33.9,31.7-60.6,31.7c-40,0-64.9-22-64.9-66.3V229.2h51.6v106.4
			c0,23.4,2.2,42.2,31.4,42.2c32.1,0,40.4-24.5,40.4-52.6v-95.9h50.8L2185.8,415.2L2185.8,415.2z"/>
		<path class="st0" d="M2459.7,415.2v-111c0-20.5-3.2-38.2-29.6-38.2c-26.7,0-35.7,19.5-35.7,44.7v104.6h-51.2V302
			c0-19.8-4-36.4-28.1-36.4c-29.6,0-37.1,23.4-37.1,48.7v100.9h-51.1v-186h48.7v25.6c14.4-20.2,32.8-30.6,59.1-30.6
			c24.5,0,43.3,10.1,52.6,30.6c14.8-20.2,34.6-30.6,60.9-30.6c41.8,0,63.5,26.3,63.5,66v125.1h-52V415.2z"/>
		<path class="st0" d="M1068.9,528.8c8.2-12.4,20.9-17.8,35.8-17.8c29.5,0,48.8,22.2,48.8,56.5c0,35-19.7,57.6-49.8,57.6
			c-14.9,0-28.7-5.4-35.8-18.8V622h-16.8V472.8h17.8V528.8z M1068.2,568.8c0,25.5,13,41.5,33.7,41.5c19.9,0,33.1-16.8,33.1-42.5
			c0-25.6-13-41.7-33.1-41.7C1077.3,526,1068.2,547.2,1068.2,568.8z"/>
		<path class="st0" d="M1218.6,635.8c-5.9,15.3-11.9,29.7-31.2,29.7c-4.6,0-8.8-0.8-13.2-1.9v-15.9c5.7,1.7,8.4,2.3,11.5,2.3
			c5.9,0,10.5-4,12.6-9l8.4-19.7l-42.9-107.4h20.1l32,86.1l30.4-86.1h18.6L1218.6,635.8z"/>
		<path class="st0" d="M1434.1,621.5c-3.8,1.5-8.2,2.1-12.1,2.1c-10.1,0-15.5-5.7-15.7-15.9c-10.7,11.9-22.4,17.2-39.2,17.2
			c-21.4,0-34.6-11.7-34.6-30.6c0-19.3,12.8-30.6,38.3-33.7c25.8-3.1,34.6-2.5,34.6-17.2c0-11.5-8.6-17.8-24.5-17.8
			c-16.5,0-25.1,6.1-26.8,22h-17.4c0.6-23,17.4-36.6,45.2-36.6c14.5,0,26.8,3.8,33.9,10.5c7.5,7.3,7.3,18.4,7.3,28.1
			c0,16.1-0.8,32-0.8,48.2c0,8,1.9,10.7,7.3,10.7c1.7,0,2.5-0.2,4.4-0.6L1434.1,621.5L1434.1,621.5z M1381.5,572.3
			c-13,1.7-30.6,3.1-30.6,20.5c0,11.1,8.2,18,21.6,18c16.8,0,32.9-11.5,32.9-25.3v-19.7C1398.7,570.8,1389.5,571.3,1381.5,572.3z"/>
		<path class="st0" d="M1502,563.7l42.1,58.2h-22.8l-30.4-44.4l-30,44.5h-21.6l40.6-57l-37.5-51.1h22.6l26.2,37.1l26.8-37.1h21.6
			L1502,563.7z"/>
		<path class="st0" d="M1569.2,513.9l24.7,89l22-89h19.5l22.8,89l24.5-89h18.4L1666.6,622h-18.8l-22.2-85.4l-22,85.4h-19.3
			l-34.8-108.1H1569.2z"/>
		<path class="st0" d="M1813.8,621.5c-3.8,1.5-8.2,2.1-12.1,2.1c-10.1,0-15.5-5.7-15.7-15.9c-10.7,11.9-22.4,17.2-39.2,17.2
			c-21.4,0-34.6-11.7-34.6-30.6c0-19.3,12.8-30.6,38.3-33.7c25.8-3.1,34.6-2.5,34.6-17.2c0-11.5-8.6-17.8-24.5-17.8
			c-16.5,0-25.1,6.1-26.8,22h-17.4c0.6-23,17.4-36.6,45.2-36.6c14.5,0,26.8,3.8,33.9,10.5c7.5,7.3,7.3,18.4,7.3,28.1
			c0,16.1-0.8,32-0.8,48.2c0,8,1.9,10.7,7.3,10.7c1.7,0,2.5-0.2,4.4-0.6L1813.8,621.5L1813.8,621.5z M1761.2,572.3
			c-13,1.7-30.6,3.1-30.6,20.5c0,11.1,8.2,18,21.6,18c16.8,0,32.9-11.5,32.9-25.3v-19.7C1778.4,570.8,1769.2,571.3,1761.2,572.3z"/>
		<path class="st0" d="M1873.7,635.8c-5.9,15.3-11.9,29.7-31.2,29.7c-4.6,0-8.8-0.8-13.2-1.9v-15.9c5.7,1.7,8.4,2.3,11.5,2.3
			c5.9,0,10.5-4,12.6-9l8.4-19.7l-42.9-107.4h20.1l32,86.1l30.4-86.1h18.6L1873.7,635.8z"/>
	</g>
</g>
<path class="st1" d="M66.4,124.8c-21.4,0-38.1,5.7-49.5,17.1C-1.9,160.7-5.1,195,7.7,240.9c12.4,44.3,39.1,97.4,77.4,154
	c29.5-44.4,65.3-89.6,106.5-134.5c-29.1-44.9-50.3-86.6-63.1-124C104.8,128.6,84.1,124.8,66.4,124.8z"/>
<path class="st1" d="M148.2,661.5c-17,52.3-15.1,90.8,5.6,111.4c36.8,36.8,130.4,12.9,244.4-62.3l2.8-1.8l2.8,1.8
	c114,75.2,207.6,99.1,244.4,62.3c20.8-20.8,22.7-59.2,5.6-111.4c-34.1-11.6-72-30.4-112.6-55.9l-5.5-3.5l4.8-4.4
	c11.5-10.6,23.1-21.8,35.4-34.1c6.8-6.7,13.4-13.5,19.8-20.2c-27.9-44.1-62.2-89.3-102.1-134.5c-11.9,12.8-23.5,24.9-35.6,37
	c-18.3,18.3-36.3,35.3-53.6,50.7l-3.3,2.9l-3.3-2.9c-17.3-15.4-35.3-32.4-53.6-50.7c-12.1-12.1-23.7-24.2-35.6-37
	c-39.8,44.9-74.1,90.1-102.1,134.5c7.2,7.5,13.7,14.1,19.8,20.2c12.3,12.3,23.8,23.4,35.4,34.1l4.8,4.4l-5.5,3.5
	C220.5,630.9,182.7,649.7,148.2,661.5z"/>
<path class="st2" d="M400.9,300.9l3.4,3.1c14.5,13.4,28.1,26.4,41.6,39.9c18.5,18.5,35.7,36.7,51.3,54.2
	c42.7,47.8,79.4,96,108.8,143.3c25.9,41.5,44.9,80.1,56.4,114.6c12.5,37.6,15.8,69,9.8,92.9L773,648.1
	c36.4-36.3,13.2-128.9-60.5-241.5c-30.6-46.9-68.3-94.8-112.2-142.3c-11.7-12.7-24-25.5-36.6-38.1c-7.3-7.3-15.5-15.3-25.7-25
	l-4.6-4.4l5.3-3.4c47.2-30.8,90.7-52.9,129.2-65.8c37.6-12.5,69-15.8,92.9-9.8L660,17c-18.7-18.7-52.6-22-97.9-9.6
	c-45.3,12.5-100,40.1-158.3,79.9l-2.8,1.9l-2.8-1.9C339.8,47.5,285.1,19.8,239.8,7.4c-45.3-12.5-79.2-9.1-97.9,9.6L41.1,117.8
	c23.9-6,55.3-2.7,92.8,9.9c38.3,12.9,83,35.6,129.1,65.8l5.3,3.5l-4.6,4.4c-8.1,7.6-16.5,15.8-25.7,25
	c-12.6,12.6-24.9,25.4-36.6,38.1c-43.8,47.6-81.6,95.5-112.2,142.3C15.6,519.2-7.5,611.7,28.9,648.1l100.6,100.6
	c-6-23.9-2.7-55.3,9.9-92.8c11.5-34.5,30.5-73,56.4-114.6c29.4-47,66-95.2,108.8-143.3c17.6-19.6,34.4-37.3,51.3-54.2
	c13.4-13.5,27.4-26.9,41.7-40L400.9,300.9z"/>
<path class="st1" d="M610.3,260.2c41.2,44.9,76.9,90.2,106.5,134.5c38.3-56.6,65-109.7,77.3-153.9c12.8-45.9,9.6-80.1-9.3-99.1
	c-20.7-20.7-59.1-22.6-111.3-5.6C660.6,173.7,639.4,215.4,610.3,260.2z"/>
</svg>
